<svg width="16" height="16" viewBox="0 0 16 16" fill="none" xmlns="http://www.w3.org/2000/svg">
<path d="M8 1.59998C5.35081 1.59998 3.2 3.75078 3.2 6.39998V9.26878L2.6344 9.83438C2.40567 10.0632 2.33726 10.4072 2.46106 10.7061C2.58485 11.005 2.87648 11.1999 3.2 11.2H12.8C13.1235 11.1999 13.4151 11.005 13.5389 10.7061C13.6627 10.4072 13.5943 10.0632 13.3656 9.83438L12.8 9.26878V6.39998C12.8 3.75078 10.6492 1.59998 8 1.59998ZM8 14.4C6.6754 14.4 5.6 13.3246 5.6 12H10.4C10.4 13.3246 9.32459 14.4 8 14.4Z" fill="#45B5C4"/>
</svg>
