<svg width="24" height="24" viewBox="0 0 24 24" fill="none" xmlns="http://www.w3.org/2000/svg">
<path d="M19.8419 9.02943C19.9901 8.89771 20.0642 8.83185 20.1311 8.76429C20.6415 8.24914 20.948 7.56655 20.994 6.84282C21 6.74791 21 6.64877 21 6.4505C21 6.03209 21 5.82288 20.9792 5.647C20.816 4.26985 19.7302 3.18402 18.353 3.02084C18.1771 3 17.9679 3 17.5495 3H6.4505C6.03209 3 5.82288 3 5.647 3.02084C4.26985 3.18402 3.18402 4.26985 3.02084 5.647C3 5.82288 3 6.03209 3 6.4505C3 6.64877 3 6.74791 3.00602 6.84282C3.05196 7.56655 3.35849 8.24914 3.86889 8.76429C3.93583 8.83185 4.00992 8.89771 4.15811 9.02943L7.38895 11.9013C7.98201 12.4284 8.27854 12.692 8.49131 13.0092C8.67987 13.2903 8.81951 13.6012 8.90431 13.9289C9 14.2986 9 14.6954 9 15.4888V18C9 19.6569 10.3431 21 12 21C13.6569 21 15 19.6569 15 18V15.4888C15 14.6954 15 14.2986 15.0957 13.9289C15.1805 13.6012 15.3201 13.2903 15.5087 13.0092C15.7215 12.692 16.018 12.4284 16.6111 11.9013L19.8419 9.02943Z" stroke="#45B5C4" stroke-width="2" stroke-linecap="round" stroke-linejoin="round"/>
</svg>
