<svg width="20" height="21" viewBox="0 0 20 21" fill="none" xmlns="http://www.w3.org/2000/svg">
<path d="M13 14.5963C13 14.5963 12 15.5963 10 15.5963C8 15.5963 7 14.5963 7 14.5963M11 19.5963H9C6.19974 19.5963 4.79961 19.5963 3.73005 19.0513C2.78924 18.572 2.02433 17.8071 1.54497 16.8663C1 15.7967 1 14.3966 1 11.5963L1 10.8778C1 9.31241 1 8.52974 1.21575 7.81929C1.40676 7.19034 1.7199 6.60523 2.13727 6.09742C2.60872 5.52382 3.25994 5.08967 4.5624 4.22137L8.22496 1.77966C8.86647 1.35198 9.18723 1.13814 9.53392 1.05506C9.8403 0.981645 10.1597 0.981645 10.4661 1.05506C10.8128 1.13814 11.1335 1.35198 11.775 1.77966L15.4376 4.22137C16.7401 5.08967 17.3913 5.52382 17.8627 6.09742C18.2801 6.60523 18.5932 7.19034 18.7842 7.81929C19 8.52974 19 9.31242 19 10.8778V11.5963C19 14.3966 19 15.7967 18.455 16.8663C17.9757 17.8071 17.2108 18.572 16.27 19.0513C15.2004 19.5963 13.8003 19.5963 11 19.5963Z" stroke="#475569" stroke-width="2" stroke-linecap="round" stroke-linejoin="round"/>
</svg>
