<svg width="25" height="25" viewBox="0 0 25 25" fill="none" xmlns="http://www.w3.org/2000/svg">
<path d="M21 9.75C21 4.91751 17.0825 1 12.25 1C7.41751 1 3.5 4.91751 3.5 9.75V12.857C1.9365 13.7158 1 14.8093 1 16C1 18.7614 6.0368 21 12.25 21C18.4632 21 23.5 18.7614 23.5 16C23.5 14.8093 22.5635 13.7158 21 12.857V9.75Z" stroke="white" stroke-width="2" stroke-linecap="round" stroke-linejoin="round"/>
<path d="M8.63184 20.7363C9.06453 22.3294 10.521 23.501 12.251 23.501C13.9811 23.501 15.4376 22.3294 15.8702 20.7363C14.7345 20.9077 13.5172 21.0007 12.251 21.0007C10.9849 21.0007 9.76761 20.9077 8.63184 20.7363Z" stroke="white" stroke-width="2" stroke-linecap="round" stroke-linejoin="round"/>
</svg>
