<svg width="33" height="33" viewBox="0 0 33 33" fill="none" xmlns="http://www.w3.org/2000/svg">
<path d="M11 2.75V8.25M22 2.75V8.25M4.125 13.75L28.875 13.75M11 19.25V19.2637M16.5 19.25V19.2637M22 19.25V19.2637M11 24.75V24.7637M16.5 24.75V24.7637M22 24.75V24.7637M17.875 30.25H15.125C11.2746 30.25 9.34946 30.25 7.87881 29.5007C6.5852 28.8415 5.53346 27.7898 4.87433 26.4962C4.125 25.0255 4.125 23.1004 4.125 19.25L4.125 16.5C4.125 12.6496 4.125 10.7245 4.87433 9.25381C5.53346 7.9602 6.5852 6.90846 7.87881 6.24933C9.34946 5.5 11.2746 5.5 15.125 5.5H17.875C21.7254 5.5 23.6505 5.5 25.1212 6.24933C26.4148 6.90846 27.4665 7.9602 28.1257 9.25381C28.875 10.7245 28.875 12.6496 28.875 16.5V19.25C28.875 23.1004 28.875 25.0255 28.1257 26.4962C27.4665 27.7898 26.4148 28.8415 25.1212 29.5007C23.6505 30.25 21.7254 30.25 17.875 30.25Z" stroke="#45B5C4" stroke-width="2" stroke-linecap="round" stroke-linejoin="round"/>
</svg>
