<svg width="39" height="36" viewBox="0 0 39 36" fill="none" xmlns="http://www.w3.org/2000/svg">
<path d="M19.3684 24.4519C22.2461 24.4519 24.5789 22.1323 24.5789 19.2708C24.5789 16.4093 22.2461 14.0896 19.3684 14.0896C16.4907 14.0896 14.1579 16.4093 14.1579 19.2708C14.1579 22.1323 16.4907 24.4519 19.3684 24.4519Z" stroke="white" stroke-width="4" stroke-linecap="round" stroke-linejoin="round"/>
<path d="M27.7315 7.22484L27.0075 6.025C26.1219 4.55736 25.6791 3.82353 25.0695 3.2905C24.53 2.8188 23.8982 2.46312 23.2139 2.24581C22.4406 2.00024 21.58 2.00024 19.8587 2.00024H18.8781C17.1569 2.00024 16.2962 2.00024 15.5229 2.24581C14.8386 2.46312 14.2068 2.8188 13.6674 3.2905C13.0577 3.82353 12.6149 4.55736 11.7293 6.02501L11.0054 7.22484C9.41398 7.28883 8.31163 7.44714 7.36091 7.83872C5.23303 8.71515 3.54244 10.3962 2.66105 12.5121C2 14.099 2 16.1108 2 20.1343C2 24.1578 2 26.1696 2.66105 27.7565C3.54244 29.8724 5.23303 31.5535 7.36091 32.4299C8.95681 33.0872 10.98 33.0872 15.0263 33.0872H23.7105C27.7569 33.0872 29.78 33.0872 31.3759 32.4299C33.5038 31.5535 35.1944 29.8724 36.0758 27.7565C36.7368 26.1696 36.7368 24.1578 36.7368 20.1343C36.7368 16.1108 36.7368 14.099 36.0758 12.5121C35.1944 10.3962 33.5038 8.71515 31.3759 7.83872C30.4252 7.44714 29.3229 7.28883 27.7315 7.22484Z" stroke="white" stroke-width="4" stroke-linecap="round" stroke-linejoin="round"/>
</svg>
