<svg width="22" height="19" viewBox="0 0 22 19" fill="none" xmlns="http://www.w3.org/2000/svg">
<path d="M2.99998 14.8185C2.99998 14.8185 2.5147 14.1715 2.51471 9.48521C2.51471 4.79896 6.31366 1 10.9999 1C11.9475 1 12.8589 1.15534 13.7099 1.44195M2.99998 14.8185L1 12.8185M2.99998 14.8185L4.99996 12.8185M18.9998 4.15192C18.9998 4.15192 19.4851 4.79896 19.4851 9.48521C19.4851 14.1715 15.6862 17.9704 10.9999 17.9704C10.0523 17.9704 9.14093 17.8151 8.28994 17.5285M18.9998 4.15192L20.9998 6.1519M18.9998 4.15192L16.9999 6.1519M10.9999 5.48488V9.48487L13.9999 11.4849" stroke="#45B5C4" stroke-width="2" stroke-linecap="round" stroke-linejoin="round"/>
</svg>
