<svg width="33" height="33" viewBox="0 0 33 33" fill="none" xmlns="http://www.w3.org/2000/svg">
<path d="M20.625 12.375H17.8751M12.3887 12.375H12.375M20.625 17.875H17.8751M12.3887 17.875H12.375M5.5 30.25L5.5 13.75C5.5 9.89964 5.5 7.97446 6.24933 6.50381C6.90846 5.2102 7.9602 4.15846 9.25381 3.49933C10.7245 2.75 12.6496 2.75 16.5 2.75C20.3504 2.75 22.2755 2.75 23.7462 3.49933C25.0398 4.15846 26.0915 5.2102 26.7507 6.50381C27.5 7.97446 27.5 9.89964 27.5 13.75V30.25L22 26.125L16.5 30.25L11 26.125L5.5 30.25Z" stroke="#45B5C4" stroke-width="2" stroke-linecap="round" stroke-linejoin="round"/>
</svg>
