<svg width="30" height="30" viewBox="0 0 30 30" fill="none" xmlns="http://www.w3.org/2000/svg">
<path d="M10 15H20M10 10H20M10 20H16.25M14.7227 2.5C16.1381 2.5 16.8458 2.5 17.5141 2.64819C18.2258 2.80599 18.9043 3.08706 19.5191 3.4787C20.0965 3.84651 20.5969 4.34691 21.5977 5.34772L22.0711 5.82107C23.152 6.90202 23.6925 7.44249 24.079 8.07322C24.4217 8.63242 24.6742 9.24207 24.8273 9.8798C25 10.5991 25 11.3634 25 12.8921V17.5C25 21.0003 25 22.7505 24.3188 24.0874C23.7196 25.2635 22.7635 26.2196 21.5874 26.8188C20.2505 27.5 18.5003 27.5 15 27.5C11.4997 27.5 9.74951 27.5 8.41256 26.8188C7.23655 26.2196 6.28042 25.2635 5.68121 24.0874C5 22.7505 5 21.0003 5 17.5V12.2227C5 8.98371 5 7.3642 5.58574 6.10828C6.2067 4.77684 7.27684 3.7067 8.60828 3.08574C9.8642 2.5 11.4837 2.5 14.7227 2.5Z" stroke="#45B5C4" stroke-width="2" stroke-linecap="round" stroke-linejoin="round"/>
</svg>
