<svg width="30" height="33" viewBox="0 0 30 33" fill="none" xmlns="http://www.w3.org/2000/svg">
<path d="M10.7866 5.17292L11.3191 6.57521C11.7402 6.4153 12.0672 6.0746 12.2096 5.64726L10.7866 5.17292ZM7.55282 7.04275L7.2521 8.51229C7.6937 8.60266 8.15254 8.48965 8.50166 8.20452L7.55282 7.04275ZM3.4096 14.2158L4.89055 14.4541C4.96201 14.0099 4.83036 13.5572 4.5319 13.2206L3.4096 14.2158ZM3.4096 17.9509L4.5319 18.9461C4.83036 18.6095 4.96201 18.1567 4.89055 17.7126L3.4096 17.9509ZM7.55282 25.1239L8.50166 23.9622C8.15254 23.677 7.6937 23.564 7.25209 23.6544L7.55282 25.1239ZM10.7866 26.9937L12.2096 26.5194C12.0672 26.0921 11.7403 25.7514 11.3191 25.5915L10.7866 26.9937ZM19.0686 26.9937L18.536 25.5915C18.1149 25.7514 17.788 26.0921 17.6455 26.5194L19.0686 26.9937ZM22.3022 25.1241L22.6029 23.6545C22.1613 23.5642 21.7025 23.6772 21.3534 23.9623L22.3022 25.1241ZM26.4456 17.951L24.9646 17.7128C24.8931 18.1569 25.0248 18.6097 25.3233 18.9462L26.4456 17.951ZM26.4456 14.2158L25.3233 13.2206C25.0248 13.5572 24.8932 14.0099 24.9646 14.4541L26.4456 14.2158ZM22.3024 7.04275L21.3535 8.20452C21.7026 8.48965 22.1615 8.60266 22.6031 8.51229L22.3024 7.04275ZM19.0686 5.17292L17.6455 5.64726C17.788 6.0746 18.1149 6.4153 18.536 6.57521L19.0686 5.17292ZM27.9644 22.6698L26.6654 21.9198V21.9198L27.9644 22.6698ZM27.6207 19.2763L26.4984 20.2715V20.2715L27.6207 19.2763ZM24.0393 25.4796L23.7386 26.9491V26.9491L24.0393 25.4796ZM27.1499 24.0804L28.449 24.8304V24.8304L27.1499 24.0804ZM18.509 28.6723L19.9321 29.1467L18.509 28.6723ZM11.3461 28.6723L9.92312 29.1467V29.1467L11.3461 28.6723ZM2.70525 24.0802L4.00428 23.3302H4.00428L2.70525 24.0802ZM5.81589 25.4794L6.11661 26.9489H6.11661L5.81589 25.4794ZM2.23444 19.2761L1.11214 18.2809H1.11214L2.23444 19.2761ZM1.89079 22.6696L0.591756 23.4196H0.591756L1.89079 22.6696ZM5.81589 6.68731L5.51517 8.15686V8.15686L5.81589 6.68731ZM2.70525 8.08643L4.00428 8.83643V8.83643L2.70525 8.08643ZM18.509 3.49434L19.9321 3.01999V3.01999L18.509 3.49434ZM1.89079 9.4971L0.591756 8.7471L0.591756 8.7471L1.89079 9.4971ZM2.23444 12.8906L1.11214 13.8858H1.11214L2.23444 12.8906ZM27.6207 12.8906L26.4984 11.8954L26.4984 11.8954L27.6207 12.8906ZM27.9644 9.4971L26.6654 10.2471V10.2471L27.9644 9.4971ZM27.1499 8.08643L28.449 7.33643V7.33643L27.1499 8.08643ZM24.0393 6.68731L24.34 8.15686V8.15686L24.0393 6.68731ZM11.3461 3.49434L12.7692 3.96868L12.7692 3.96868L11.3461 3.49434ZM19.3026 16.0833H17.8026C17.8026 17.6712 16.5154 18.9583 14.9276 18.9583V20.4583V21.9583C18.1723 21.9583 20.8026 19.328 20.8026 16.0833H19.3026ZM14.9276 20.4583V18.9583C13.3398 18.9583 12.0526 17.6712 12.0526 16.0833H10.5526H9.05259C9.05259 19.328 11.6829 21.9583 14.9276 21.9583V20.4583ZM10.5526 16.0833H12.0526C12.0526 14.4955 13.3398 13.2083 14.9276 13.2083V11.7083V10.2083C11.6829 10.2083 9.05259 12.8387 9.05259 16.0833H10.5526ZM14.9276 11.7083V13.2083C16.5154 13.2083 17.8026 14.4955 17.8026 16.0833H19.3026H20.8026C20.8026 12.8387 18.1723 10.2083 14.9276 10.2083V11.7083ZM14.1131 1.5V3H15.742V1.5V0H14.1131V1.5ZM10.7866 5.17292L12.2096 5.64726L12.7692 3.96868L11.3461 3.49434L9.92312 3.01999L9.36359 4.69858L10.7866 5.17292ZM7.55282 7.04275L8.50166 8.20452C9.3408 7.51917 10.2905 6.96584 11.3191 6.57521L10.7866 5.17292L10.2541 3.77063C8.91923 4.27755 7.68912 4.99472 6.60398 5.88098L7.55282 7.04275ZM5.81589 6.68731L5.51517 8.15686L7.2521 8.51229L7.55282 7.04275L7.85354 5.5732L6.11661 5.21776L5.81589 6.68731ZM1.89079 9.4971L3.18983 10.2471L4.00428 8.83643L2.70525 8.08643L1.40621 7.33643L0.591756 8.7471L1.89079 9.4971ZM3.4096 14.2158L4.5319 13.2206L3.35675 11.8954L2.23444 12.8906L1.11214 13.8858L2.28729 15.211L3.4096 14.2158ZM3.26093 16.0833H4.76093C4.76093 15.5278 4.80535 14.9836 4.89055 14.4541L3.4096 14.2158L1.92864 13.9775C1.81818 14.6641 1.76093 15.3676 1.76093 16.0833H3.26093ZM3.4096 17.9509L4.89055 17.7126C4.80535 17.183 4.76093 16.6389 4.76093 16.0833H3.26093H1.76093C1.76093 16.7991 1.81818 17.5026 1.92864 18.1891L3.4096 17.9509ZM2.23444 19.2761L3.35675 20.2713L4.5319 18.9461L3.4096 17.9509L2.28729 16.9557L1.11214 18.2809L2.23444 19.2761ZM2.70525 24.0802L4.00428 23.3302L3.18983 21.9196L1.89079 22.6696L0.591756 23.4196L1.40621 24.8302L2.70525 24.0802ZM7.55282 25.1239L7.25209 23.6544L5.51517 24.0098L5.81589 25.4794L6.11661 26.9489L7.85354 26.5935L7.55282 25.1239ZM10.7866 26.9937L11.3191 25.5915C10.2905 25.2008 9.34079 24.6475 8.50166 23.9622L7.55282 25.1239L6.60398 26.2857C7.68912 27.1719 8.91923 27.8891 10.2541 28.396L10.7866 26.9937ZM11.3461 28.6723L12.7692 28.198L12.2096 26.5194L10.7866 26.9937L9.36359 27.4681L9.92312 29.1467L11.3461 28.6723ZM15.742 30.6667V29.1667H14.1131V30.6667V32.1667H15.742V30.6667ZM19.0686 26.9937L17.6455 26.5194L17.086 28.198L18.509 28.6723L19.9321 29.1467L20.4916 27.4681L19.0686 26.9937ZM22.3022 25.1241L21.3534 23.9623C20.5143 24.6476 19.5646 25.2009 18.536 25.5915L19.0686 26.9937L19.6011 28.396C20.9359 27.8891 22.1659 27.172 23.251 26.2859L22.3022 25.1241ZM24.0393 25.4796L24.34 24.01L22.6029 23.6545L22.3022 25.1241L22.0015 26.5936L23.7386 26.9491L24.0393 25.4796ZM27.9644 22.6698L26.6654 21.9198L25.8509 23.3304L27.1499 24.0804L28.449 24.8304L29.2634 23.4198L27.9644 22.6698ZM26.4456 17.951L25.3233 18.9462L26.4984 20.2715L27.6207 19.2763L28.743 18.2811L27.5679 16.9558L26.4456 17.951ZM26.5943 16.0833H25.0943C25.0943 16.6389 25.0498 17.1831 24.9646 17.7128L26.4456 17.951L27.9265 18.1893C28.037 17.5027 28.0943 16.7992 28.0943 16.0833H26.5943ZM26.4456 14.2158L24.9646 14.4541C25.0498 14.9836 25.0943 15.5278 25.0943 16.0833H26.5943H28.0943C28.0943 15.3676 28.037 14.6641 27.9265 13.9775L26.4456 14.2158ZM27.6207 12.8906L26.4984 11.8954L25.3233 13.2206L26.4456 14.2158L27.5679 15.211L28.743 13.8858L27.6207 12.8906ZM27.1499 8.08643L25.8509 8.83643L26.6654 10.2471L27.9644 9.4971L29.2634 8.7471L28.449 7.33643L27.1499 8.08643ZM22.3024 7.04275L22.6031 8.51229L24.34 8.15686L24.0393 6.68731L23.7386 5.21777L22.0016 5.5732L22.3024 7.04275ZM19.0686 5.17292L18.536 6.57521C19.5647 6.96584 20.5144 7.51917 21.3535 8.20452L22.3024 7.04275L23.2512 5.88098C22.1661 4.99472 20.936 4.27755 19.6011 3.77063L19.0686 5.17292ZM18.509 3.49434L17.086 3.96868L17.6455 5.64726L19.0686 5.17292L20.4916 4.69858L19.9321 3.01999L18.509 3.49434ZM27.9644 22.6698L29.2634 23.4198C30.214 21.7734 30.0043 19.7035 28.743 18.2811L27.6207 19.2763L26.4984 20.2715C26.903 20.7277 26.9702 21.3917 26.6654 21.9198L27.9644 22.6698ZM24.0393 25.4796L23.7386 26.9491C25.601 27.3302 27.4984 26.4768 28.449 24.8304L27.1499 24.0804L25.8509 23.3304C25.546 23.8585 24.9374 24.1323 24.34 24.01L24.0393 25.4796ZM15.742 30.6667V32.1667C17.6431 32.1667 19.3309 30.9502 19.9321 29.1467L18.509 28.6723L17.086 28.198C16.8932 28.7765 16.3518 29.1667 15.742 29.1667V30.6667ZM11.3461 28.6723L9.92312 29.1467C10.5243 30.9502 12.2121 32.1667 14.1131 32.1667V30.6667V29.1667C13.5034 29.1667 12.962 28.7765 12.7692 28.198L11.3461 28.6723ZM2.70525 24.0802L1.40621 24.8302C2.35674 26.4766 4.25414 27.33 6.11661 26.9489L5.81589 25.4794L5.51517 24.0098C4.91777 24.1321 4.30917 23.8583 4.00428 23.3302L2.70525 24.0802ZM2.23444 19.2761L1.11214 18.2809C-0.149163 19.7033 -0.358778 21.7732 0.591756 23.4196L1.89079 22.6696L3.18983 21.9196C2.88494 21.3915 2.95218 20.7275 3.35675 20.2713L2.23444 19.2761ZM5.81589 6.68731L6.11661 5.21776C4.25414 4.83664 2.35674 5.69006 1.40621 7.33643L2.70525 8.08643L4.00428 8.83643C4.30917 8.30835 4.91777 8.03461 5.51517 8.15686L5.81589 6.68731ZM15.742 1.5V3C16.3518 3 16.8932 3.39019 17.086 3.96868L18.509 3.49434L19.9321 3.01999C19.3309 1.21648 17.6431 0 15.742 0V1.5ZM1.89079 9.4971L0.591756 8.7471C-0.358778 10.3935 -0.149163 12.4634 1.11214 13.8858L2.23444 12.8906L3.35675 11.8954C2.95218 11.4391 2.88494 10.7752 3.18983 10.2471L1.89079 9.4971ZM27.6207 12.8906L28.743 13.8858C30.0043 12.4634 30.214 10.3935 29.2634 8.7471L27.9644 9.4971L26.6654 10.2471C26.9702 10.7752 26.903 11.4391 26.4984 11.8954L27.6207 12.8906ZM27.1499 8.08643L28.449 7.33643C27.4984 5.69006 25.601 4.83664 23.7386 5.21777L24.0393 6.68731L24.34 8.15686C24.9374 8.03461 25.546 8.30835 25.8509 8.83643L27.1499 8.08643ZM14.1131 1.5V0C12.2121 0 10.5243 1.21648 9.92312 3.02L11.3461 3.49434L12.7692 3.96868C12.962 3.39019 13.5034 3 14.1131 3V1.5Z" fill="#45B5C4"/>
</svg>
