<svg width="27" height="27" viewBox="0 0 27 27" fill="none" xmlns="http://www.w3.org/2000/svg">
<path d="M17.6667 19.2782C17.6667 19.2782 16.2778 20.6226 13.5 20.6226C10.7222 20.6226 9.33333 19.2782 9.33333 19.2782M14.8889 26H12.1111C8.22186 26 6.27723 26 4.79173 25.2674C3.48505 24.6229 2.42269 23.5946 1.7569 22.3299C1 20.892 1 19.0097 1 15.2452L1 14.2792C1 12.1748 1 11.1226 1.29966 10.1675C1.56494 9.32201 1.99987 8.53541 2.57954 7.85274C3.23433 7.08161 4.13881 6.49796 5.94778 5.33066L11.0347 2.04814C11.9257 1.47319 12.3712 1.18572 12.8527 1.07403C13.2782 0.975325 13.7218 0.975325 14.1473 1.07403C14.6288 1.18572 15.0743 1.47319 15.9653 2.04814L21.0522 5.33066C22.8612 6.49796 23.7657 7.08161 24.4205 7.85274C25.0001 8.53541 25.4351 9.32201 25.7003 10.1675C26 11.1226 26 12.1748 26 14.2792V15.2452C26 19.0097 26 20.892 25.2431 22.3299C24.5773 23.5946 23.5149 24.6229 22.2083 25.2674C20.7228 26 18.7781 26 14.8889 26Z" stroke="black" stroke-width="2" stroke-linecap="round" stroke-linejoin="round"/>
</svg>
