<svg width="33" height="33" viewBox="0 0 33 33" fill="none" xmlns="http://www.w3.org/2000/svg">
<path d="M12.875 19H21.125M17 14.875L17 23.125M9.75382 5.99436C10.2635 5.73467 10.8278 5.56498 11.5078 5.4541C11.6147 6.87522 12.8016 7.99503 14.25 7.99503H19.75C21.1984 7.99503 22.3853 6.87522 22.4922 5.4541C23.1722 5.56498 23.7365 5.73467 24.2462 5.99436C25.5398 6.65349 26.5915 7.70524 27.2507 8.99885C28 10.4695 28 12.3947 28 16.245V18.995C28 22.8454 28 24.7706 27.2507 26.2412C26.5915 27.5348 25.5398 28.5866 24.2462 29.2457C22.7755 29.995 20.8504 29.995 17 29.995C13.1496 29.995 11.2245 29.995 9.75382 29.2457C8.4602 28.5866 7.40846 27.5348 6.74933 26.2412C6 24.7706 6 22.8454 6 18.995V16.245C6 12.3947 6 10.4695 6.74933 8.99885C7.40846 7.70524 8.4602 6.65349 9.75382 5.99436ZM14.25 8H19.75C21.2688 8 22.5 6.76878 22.5 5.25C22.5 3.73122 21.2688 2.5 19.75 2.5H14.25C12.7312 2.5 11.5 3.73122 11.5 5.25C11.5 6.76878 12.7312 8 14.25 8Z" stroke="#45B5C4" stroke-width="2" stroke-linecap="round" stroke-linejoin="round"/>
</svg>
