<svg width="27" height="27" viewBox="0 0 27 27" fill="none" xmlns="http://www.w3.org/2000/svg">
<path d="M11.1897 1.53382C7.83435 1.53648 6.07492 1.57946 4.71097 2.27439C3.43212 2.92596 2.39238 3.96565 1.74078 5.24444C1 6.69823 1 8.60135 1 12.4076V15.1261C1 18.9323 1 20.8354 1.74078 22.2892C2.39238 23.568 3.43212 24.6077 4.71097 25.2593C6.16483 26 8.06804 26 11.8745 26H14.5931C18.3995 26 20.3027 26 21.7565 25.2593C23.0354 24.6077 24.0751 23.568 24.7267 22.2892C25.4224 20.924 25.4648 19.1625 25.4674 15.801M14.742 6.39755L18.9257 2.21377C20.544 0.595444 23.1679 0.595403 24.7863 2.21368C26.4046 3.83195 26.4046 6.45568 24.7862 8.07392L20.6564 12.2034C19.7382 13.1216 19.279 13.5807 18.7615 13.9357C17.9796 14.4719 17.0942 14.8387 16.1621 15.0124C15.5451 15.1274 14.8958 15.1274 13.5973 15.1275L11.7639 15.1276L11.7972 13.3252C11.8211 12.0292 11.8331 11.3812 11.9594 10.7665C12.1417 9.87908 12.4996 9.03706 13.0121 8.28997C13.3671 7.77244 13.8254 7.31415 14.742 6.39755ZM14.9751 6.164L18.2476 2.89165L24.1082 8.75197L20.9179 11.9418C19.7425 13.1169 19.1548 13.7044 18.4691 14.1246C17.8611 14.4972 17.1982 14.7717 16.5048 14.9382C15.7228 15.126 14.8918 15.126 13.2297 15.1261L11.7647 15.1262L11.7919 13.6522C11.8218 12.0322 11.8368 11.2222 12.03 10.4611C12.2013 9.78615 12.4753 9.14155 12.8424 8.54985C13.2565 7.88256 13.8293 7.3097 14.9751 6.164Z" stroke="#131316" stroke-width="2" stroke-linejoin="round"/>
</svg>
